PathFileType	4	(X/Y/Z)	OpenSim_Sub08_CSBaseline_Gyro.trc
DataRate	CameraRate	NumFrames	NumMarkers	Units	OrigDataRate	OrigDataStartFrame	OrigNumFrames
100	100	38	8	m	100	1	5461
Frame#	Time	torso_imu_offset_imu	pelvis_imu_offset_imu	tibia_r_imu_offset_imu	femur_r_imu_offset_imu	tibia_l_imu_offset_imu	femur_l_imu_offset_imu	toes_r_imu_offset_imu	toes_l_imu_offset_imu
				X1	Y1	Z1	X2	Y2	Z2	X3	Y3	Z3	X4	Y4	Z4	X5	Y5	Z5	X6	Y6	Z6	X7	Y7	Z7	X8		Y8	Z8	

1	0	0.00006200	0.00332100	-0.00104000	0.00417200	-0.00087300	-0.00308600	0.01147100	0.01603200	-0.00865100	0.00341600	0.01565400	-0.01303400	0.00147600	0.00814100	0.01624100	0.00549300	-0.00848400	0.00696300	0.00280600	0.00266400	-0.00003700	-0.00462300	0.01137400	0.00182700
2	0.01000000	-0.00094500	0.00322800	-0.00553400	0.00928800	-0.00292000	-0.00462300	0.00205500	0.01386600	-0.00709800	0.00148900	0.01464900	-0.01319300	0.00707900	0.00671400	0.01352100	0.00681000	-0.00871300	0.00366800	0.00888200	0.00630500	-0.00019600	-0.00575700	0.01290800	0.00072000
3	0.02000000	0.00249000	0.00262700	-0.00191000	0.01038200	-0.00160900	-0.00267600	-0.01234700	0.00302400	-0.00020300	0.00306200	0.01092900	-0.01644200	0.01363400	0.00323800	0.01230700	0.00844400	-0.00760900	0.00272800	-0.00315000	0.00642900	0.00109600	-0.00719000	0.00807300	0.00116900
4	0.03000000	-0.00188700	0.00081400	-0.00127200	0.00885200	0.00050000	-0.00313900	-0.02176300	0.00085700	0.00135000	0.00552300	0.01401300	-0.02035400	0.01607500	0.00656600	0.00968400	0.00739900	-0.00678200	0.00444000	0.00431700	0.00501400	0.00068500	-0.00205500	0.01467500	0.00248800
5	0.04000000	-0.00431500	0.00150700	-0.00040300	0.00847600	-0.00129200	0.00018500	-0.00871800	0.00259700	0.00161600	0.01535300	0.01167000	-0.02388900	0.00975300	0.00941900	0.00663100	0.00367600	-0.00623300	0.00880400	-0.00268600	0.00474300	0.00101200	-0.00587600	0.01368600	0.00209400
6	0.05000000	0.00081800	-0.00422700	-0.00218100	0.01030400	0.00157100	0.00144300	-0.00696200	-0.00017600	0.00021600	0.00947700	0.01233500	-0.02220300	0.00696400	0.00036400	0.01241200	0.00499200	-0.00893500	0.01406200	0.00357600	0.00427000	-0.00427200	-0.00131800	0.01101200	0.00283000
7	0.06000000	0.00445400	-0.00368100	0.00038300	0.00556300	0.00541000	-0.00034500	0.00810100	-0.00266700	-0.00434900	0.01180500	0.01857800	-0.02129800	-0.00133700	0.00530500	0.00668900	0.00499200	-0.00893500	0.01406100	-0.00179200	0.00713300	0.00389300	-0.00181100	0.01312100	-0.00025700
8	0.07000000	0.00074400	-0.00437500	0.00659500	0.00388400	0.00503200	-0.00120600	0.02328000	-0.00003900	-0.00429500	0.01127400	0.01649600	-0.01723000	-0.01014000	0.00715500	0.00805100	-0.00040900	-0.01022600	0.01542800	0.00079900	0.00775800	0.00237300	-0.00410200	0.01272800	0.00122200
9	0.08000000	0.00134700	-0.00093400	0.00341300	-0.00217800	0.00825300	-0.00122000	0.02642800	0.00671800	-0.00556900	0.01015800	0.01653700	-0.00958700	-0.01333900	0.00757500	0.00669500	-0.00090900	-0.00820700	0.01397600	0.00187900	0.00603400	0.00013000	-0.00358300	0.01408000	0.00061600
10	0.09000000	-0.00148300	-0.00253500	0.00640300	-0.00480100	0.00905000	-0.00363100	0.02241800	0.00348600	-0.00857500	0.00961700	0.01917500	-0.00867100	-0.00575700	0.01071700	0.00989000	-0.00181600	-0.01147100	0.01084900	0.00104700	0.00403500	0.00080600	-0.00410100	0.01272800	0.00122300
11	0.10000000	-0.00162100	-0.00036100	0.00642300	-0.00574500	0.01022500	-0.00518100	0.01314100	0.00857000	-0.00738400	0.00032900	0.01887300	-0.00605900	-0.00244200	0.00998400	0.00911300	-0.00276900	-0.00669500	0.01188200	0.00499500	0.00536500	0.00208500	-0.00461900	0.01137600	0.00182900
12	0.11000000	-0.00519500	0.00241400	0.00281900	-0.00815900	0.00829600	-0.00535300	0.00249400	0.00625900	-0.01129500	-0.00441400	0.01006100	-0.00571000	-0.00358500	0.01033000	0.01008400	-0.00876000	-0.00991400	0.01247800	0.00052200	0.00532900	-0.00266800	-0.00281900	0.01388000	-0.00273500
13	0.12000000	0.00073100	0.00444000	0.00453400	-0.00631000	0.01319300	-0.01005400	-0.00328900	0.00366200	-0.00792200	-0.01622600	0.01559200	-0.00283800	0.00068000	0.00754800	0.01081100	-0.01280000	-0.01069500	0.01448700	0.00478000	0.00332800	0.00060200	-0.00590000	0.01022400	0.00578800
14	0.13000000	0.00709600	-0.01204300	0.00051300	0.00016900	0.00452000	-0.00556300	-0.01294200	0.00508300	-0.00791600	-0.01030000	0.01544200	-0.00718100	-0.00575600	0.01071400	0.00989000	-0.01616000	-0.01437700	0.00849400	0.00370000	0.00505200	0.00284400	-0.00893100	0.01249700	-0.00165300
15	0.14000000	0.01141200	-0.01355100	0.00091500	-0.00494800	0.00656600	-0.00402800	-0.00961300	0.00568900	-0.00995300	-0.00980100	0.01228400	-0.00544000	-0.00168600	0.00622900	0.01309300	-0.01393600	-0.01134400	0.00832600	0.00601500	0.00324900	-0.00371600	-0.00308800	0.01197100	0.00370400
16	0.15000000	0.00276700	-0.00172100	-0.00195000	-0.00268200	0.00601000	-0.00425200	-0.00566600	0.00636600	-0.00925600	-0.00441700	0.01477400	-0.00886600	-0.00275300	0.00193300	0.01047700	-0.01643400	-0.01497000	0.01007300	0.00172500	0.00438700	0.00220500	-0.00587100	0.01368800	0.00209600
17	0.16000000	-0.00079300	-0.00776100	-0.00349300	-0.00071400	0.00048200	-0.00527100	0.00587900	0.00942800	-0.01102200	-0.00644000	0.01744800	-0.00686500	-0.00263500	0.00827700	0.01158900	-0.01525300	-0.01111100	0.01161800	0.00425600	0.00462100	-0.00287300	-0.00473900	0.01215400	0.00320400
18	0.17000000	-0.00549300	-0.01736100	0.00028800	-0.00173900	0.00483600	-0.00270200	0.01164000	0.00989300	-0.00941500	-0.00451100	0.01845200	-0.00670600	-0.00488400	0.00665000	0.01173600	-0.01316800	-0.01276400	0.00819100	0.00607600	0.00364000	-0.00015800	-0.00461600	0.01137700	0.00183100
19	0.18000000	-0.01647200	-0.01914600	0.00137500	-0.00079500	0.00366100	-0.00115200	0.01582900	0.00697900	-0.00717100	-0.00396200	0.01109800	-0.00446800	-0.00259600	0.00595400	0.00979600	-0.00962700	-0.00996400	0.00473100	0.00280600	0.00266300	-0.00003700	-0.00779600	0.01096400	-0.00054500
20	0.19000000	-0.01632900	-0.02131800	0.00135400	0.00462000	0.00658700	-0.00189200	0.00499700	0.01081600	-0.01032500	-0.00747200	0.01852200	-0.00453800	-0.00815800	0.01171300	0.01396600	-0.00459100	-0.01322000	0.00561800	0.00388700	0.00093800	-0.00228000	-0.00537900	0.01157800	0.00518300
21	0.20000000	-0.01600600	-0.01353000	-0.00178600	-0.00100300	0.00638800	-0.00339100	0.01489100	0.00580800	-0.00878000	-0.00548800	0.01061500	-0.00072700	-0.00385700	0.00660800	0.01290100	-0.00572000	-0.00509300	0.00756100	0.00678800	-0.00176800	-0.00180700	-0.00767300	0.01018800	-0.00191800
22	0.21000000	-0.00326900	-0.01355600	-0.00932100	-0.00436000	0.00563300	-0.00511400	-0.00389100	0.00572700	-0.01563800	-0.00657300	0.01588900	0.00110500	0.00277400	0.00514100	0.01134900	-0.00145400	-0.00692700	0.00858000	0.00040300	-0.00207700	-0.00364100	-0.00256600	0.01332500	0.00310200
23	0.22000000	-0.00374700	-0.01035600	-0.00821900	-0.00713000	0.00394500	-0.00792300	-0.00095500	0.00053700	-0.01387900	0.00074700	0.00995800	0.00415300	0.00822300	0.00634100	0.01256100	0.00181500	-0.00472400	0.00670100	0.01092500	-0.00455300	-0.00565200	-0.00935300	0.00690600	0.00127100
24	0.23000000	-0.00070800	-0.01325200	-0.00247600	-0.00998200	0.00543500	-0.00661300	0.01107300	-0.00357800	-0.01254700	0.00850900	0.00978100	0.00529100	0.00826000	0.00402000	0.01076700	-0.00086300	-0.00499800	0.00935300	0.00055600	-0.00043300	-0.00571700	-0.00357400	0.01408400	0.00062200
25	0.24000000	0.00462700	-0.01783800	-0.00532100	-0.01545400	0.00772300	-0.00771400	0.01378300	-0.00303900	-0.01731700	0.01083800	0.01130900	0.00935400	0.00700000	0.00467500	0.01387200	-0.00222500	-0.00550300	0.00871100	0.00533600	0.00289500	-0.00511600	-0.00256500	0.01332600	0.00310300
26	0.25000000	-0.00014400	-0.02194500	-0.00255900	-0.02054600	0.01180700	-0.01213900	0.02225100	-0.00203200	-0.02047900	0.01281400	0.01283000	0.00685500	-0.00172700	0.00189000	0.01164100	-0.00358800	-0.00600900	0.00806900	0.00450500	0.00089700	-0.00443900	-0.00140200	0.01525500	0.00052000
27	0.26000000	-0.00372000	-0.01916900	-0.00616000	-0.01680800	0.01435900	-0.01373800	0.02952000	-0.00073900	-0.02182100	0.00876700	0.01817600	0.01085300	-0.00835700	0.00335800	0.01319300	-0.00636100	-0.00775700	0.00285100	0.00382600	0.00054400	-0.00583800	-0.00562100	0.01213700	-0.00064800
28	0.27000000	0.00071300	-0.01403500	-0.00784100	-0.01521700	0.00703600	-0.01143500	0.02106200	0.00039100	-0.02364200	0.00213700	0.00888400	0.00838100	-0.01052800	0.00374300	0.01299900	-0.01158600	-0.01239300	0.00331400	0.00295900	0.00430700	-0.00211400	0.00150200	0.01276200	0.00075700
29	0.28000000	-0.00218600	-0.01331200	-0.01360300	-0.00771100	0.00488300	-0.00683600	0.01477700	0.00283600	-0.01838600	-0.00680300	0.01329900	0.01438400	-0.01044800	0.00575300	0.01265900	-0.00790100	-0.00491000	0.00311500	0.00450500	0.00089700	-0.00443900	-0.00485700	0.01293200	0.00458000
30	0.29000000	0.00159400	-0.01493900	-0.01106400	-0.00159300	-0.00355300	-0.00498300	0.01227200	-0.00171800	-0.01935500	-0.01442200	0.01031600	0.00842600	-0.00432100	0.00783200	0.02144000	-0.01149200	-0.00844500	0.00263800	-0.00009600	0.00536800	-0.00051200	-0.00892000	0.01250300	-0.00165300
31	0.30000000	0.00106700	-0.01822900	-0.01665900	0.00658700	0.00106200	-0.00290900	0.00906900	0.00492700	-0.01768700	-0.02173500	0.01624600	0.00537100	-0.00081700	0.00215200	0.01494100	-0.01744100	-0.00844600	-0.00137700	0.00471900	0.00293500	-0.00295700	-0.00305000	0.01543900	0.00002000
32	0.31000000	0.00470700	-0.01768200	-0.01410000	0.00767800	0.00237200	-0.00096000	0.00880700	0.00638500	-0.01425600	-0.01827400	0.01772900	0.00179000	0.00112100	0.00237800	0.01940500	-0.02061600	-0.00670100	-0.00017300	0.00431600	0.00501300	0.00068400	-0.00066700	0.01159100	0.00086100
33	0.32000000	0.00024900	-0.01400300	-0.01447500	0.01009100	0.00430300	-0.00078500	0.00667500	0.00549300	-0.01404200	-0.01916500	0.01564600	-0.00070100	0.00254300	0.00574400	0.01562000	-0.01684900	-0.00651700	-0.00060400	0.00166400	0.00399500	-0.00135500	-0.00830900	0.00961400	0.00005900
34	0.33000000	0.00422800	-0.01448200	-0.01299800	0.00747100	0.00510200	-0.00319700	0.00848800	0.00528400	-0.01313200	-0.00933200	0.01331400	-0.00421200	0.00029200	0.00411900	0.01576600	-0.01077200	-0.01060200	-0.00143400	0.00493300	0.00497200	-0.00147500	-0.00283700	0.01042100	0.00096300
35	0.34000000	0.00174800	-0.01711000	-0.01108600	0.00849900	0.00075000	-0.00576700	0.01180000	0.00376200	-0.01018600	-0.00399200	0.01528600	-0.00497200	0.00238200	0.00171900	0.01630100	-0.00282100	-0.00495700	-0.00061100	0.00172400	0.00438800	0.00220300	-0.00638200	0.01233900	0.00270500
36	0.35000000	0.00597800	-0.01312100	-0.01170900	0.00432400	0.00161800	-0.00268400	0.00359600	0.00129000	-0.01045400	0.00332300	0.01406800	-0.00507100	0.00475000	0.00303400	0.01402100	0.00226500	-0.00748100	0.00420800	0.00296000	0.00430700	-0.00211500	-0.00513000	0.01002700	0.00243900
37	0.36000000	0.00344500	-0.01906900	-0.00875600	0.00023300	-0.00069000	-0.00372100	0.00572500	0.00218500	-0.01066800	0.01118200	0.01492700	-0.00924100	0.00692100	0.00264500	0.01421600	0.00576000	-0.00789500	0.00535800	0.00536200	0.00904700	0.00148800	-0.00356700	0.01408700	0.00062600
38	0.37000000	0.00024600	-0.01083300	-0.00673900	0.00205800	0.00217400	-0.00246100	0.01299200	0.00348400	-0.01201000	0.00911000	0.01707800	-0.00458700	0.00712000	0.00434800	0.01174200	0.01089100	-0.00720700	0.00556800	0.00098600	0.00364100	-0.00275400	-0.00231500	0.01177500	0.00036000
